<?xml version="1.0" encoding="UTF-8"?>
<svg xmlns="http://www.w3.org/2000/svg" width="16" height="16" viewBox="0 0 16 16">
    <path fill="#2e3436" fill-rule="evenodd" d="M2.95 2.61 L3.04 3.78 L3.28 4.97 L3.66 6.13 L4.16 7.26 L4.77 8.35 L5.57 9.51 L6.35 10.44 L7.30 11.40 L8.30 12.20 L9.21 12.77 L10.16 13.20 L11.08 13.46 L12.02 13.52 L12.80 13.39 L13.55 13.07 L14.13 12.62 L14.39 12.24 L14.59 11.70 L14.64 11.24 L14.59 10.78 L14.46 10.40 L14.24 10.04 L13.02 8.60 L12.67 8.34 L12.27 8.16 L11.83 8.08 L11.43 8.10 L11.14 8.16 L10.77 8.31 L9.92 8.94 L9.25 8.53 L8.61 8.03 L8.04 7.47 L7.54 6.84 L7.06 6.08 L7.60 5.38 L7.78 5.02 L7.91 4.56 L7.91 4.12 L7.84 3.73 L7.73 3.46 L7.52 3.11 L7.24 2.82 L5.78 1.64 L5.36 1.45 L4.90 1.36 L4.29 1.41 L3.67 1.66 L3.35 1.90 L3.09 2.20 L2.99 2.39 L2.95 2.61 Z M4.25 2.84 L4.50 2.70 L4.73 2.66 L5.11 2.75 L6.37 3.79 L6.56 4.03 L6.62 4.24 L6.58 4.53 L5.77 5.63 L5.70 5.85 L5.69 6.17 L5.89 6.64 L6.30 7.33 L6.77 7.98 L7.30 8.57 L7.88 9.12 L8.64 9.68 L9.48 10.17 L9.91 10.32 L10.14 10.32 L10.35 10.25 L11.46 9.42 L11.74 9.38 L12.02 9.46 L12.20 9.61 L13.27 10.95 L13.34 11.17 L13.33 11.41 L13.24 11.63 L13.10 11.81 L12.61 12.09 L12.05 12.22 L11.41 12.19 L10.71 12.02 L9.95 11.69 L9.17 11.22 L8.39 10.62 L7.63 9.90 L6.90 9.09 L6.23 8.20 L5.63 7.25 L5.19 6.40 L4.77 5.37 L4.50 4.49 L4.30 3.46 L4.25 2.84 Z"/>
</svg>
